<?xml version="1.0" encoding="UTF-8"?>
<svg width="90px" height="90px" version="1.1" viewBox="0 0 1200 1200" xmlns="http://www.w3.org/2000/svg">
 <g>
  <path d="m600 39c-309.36 0-561 251.64-561 561s251.64 561 561 561 561-251.64 561-561-251.64-561-561-561zm0 1062c-276.24 0-501-224.76-501-501s224.76-501 501-501 501 224.76 501 501-224.76 501-501 501z"/>
  <path d="m600 417.12c54.359 0 98.641-44.281 98.641-98.641s-44.281-98.641-98.641-98.641-98.641 44.281-98.641 98.641 44.281 98.641 98.641 98.641zm0-161.16c34.559 0 62.641 28.078 62.641 62.641 0 34.559-28.078 62.641-62.641 62.641-34.559 0-62.641-28.078-62.641-62.641s28.082-62.641 62.641-62.641z"/>
  <path d="m831.36 411.84c-2.7617 0-5.5195 0.23828-8.2812 0.60156l-173.04 24.359h-100.08l-173.16-24.359c-2.7617-0.35938-5.5195-0.60156-8.2812-0.60156-32.281 0-60.359 26.398-65.281 61.441-5.3984 38.52 18.84 73.922 54 78.84l150.84 21.238v76.32l-95.277 229.92c-7.1992 17.398-7.1992 36.602 0 54 7.1992 17.398 20.762 30.961 38.16 38.16 8.6406 3.6016 17.641 5.3984 26.879 5.3984 28.68 0 54.359-17.039 65.281-43.559l56.879-137.16 56.762 137.16c10.922 26.398 36.602 43.559 65.281 43.559 9.2383 0 18.359-1.8008 26.879-5.3984 35.879-14.879 53.039-56.281 38.16-92.16l-95.281-230.04v-76.32l150.84-21.238c18.121-2.5195 34.199-13.32 44.16-29.762 8.7617-14.281 12.238-31.801 9.8398-49.078-4.8008-34.805-32.879-61.324-65.281-61.324zm6.3594 104.64-181.8 25.559v114.72l98.039 236.64c7.3203 17.52-1.1992 37.922-18.719 45.121-4.3203 1.8008-8.7617 2.6406-13.078 2.6406-13.559 0-26.52-8.0391-32.039-21.359l-90.121-217.44-90.121 217.44c-5.5195 13.32-18.48 21.359-32.039 21.359-4.4414 0-8.8789-0.83984-13.078-2.6406-17.52-7.3203-25.922-27.602-18.719-45.121l98.039-236.64v-114.72l-181.8-25.559c-15.48-2.1602-25.922-19.32-23.281-38.16 2.3984-17.52 15.48-30.48 29.641-30.48 1.0781 0 2.1602 0.12109 3.2383 0.23828l175.56 24.719h105.12l175.56-24.719c1.0781-0.12109 2.1602-0.23828 3.2383-0.23828 14.281 0 27.238 12.961 29.641 30.48 2.7656 18.84-7.7969 36-23.277 38.16z"/>
 </g>
</svg>
