<?xml version="1.0" encoding="UTF-8"?>
<svg width="100px" height="100px" version="1.1" viewBox="0 0 700 700" xmlns="http://www.w3.org/2000/svg" xmlns:xlink="http://www.w3.org/1999/xlink">
 
 <g>
  <path d="m616.84 207.87c0.085937-0.80078 0.085937-1.6055 0-2.4062v-0.39453c-0.19141-0.71484-0.45312-1.4062-0.78516-2.0703v-0.33594l-55.441-105.89h0.003907c-1.9375-3.6836-5.7539-5.9922-9.9141-5.9922h-98.504v-60.539c0-2.9688-1.1797-5.8164-3.2812-7.918-2.0977-2.1016-4.9492-3.2812-7.918-3.2812h-182c-6.1875 0-11.199 5.0156-11.199 11.199v60.539h-87.191c-3.8711-0.007813-7.4688 1.9805-9.5195 5.2617l-66.25 105.84v0.39453c-0.36328 0.64062-0.66406 1.3164-0.89453 2.0156v0.72656c-0.17969 0.69531-0.29297 1.4102-0.33594 2.1289v0.55859 0 28.395c0.019531 11.496 3.7188 22.684 10.547 31.934 6.832 9.2461 16.438 16.07 27.418 19.473v0.95312 241.3c0 2.9688 1.1836 5.8164 3.2812 7.918 2.1016 2.1016 4.9492 3.2812 7.9219 3.2812h435.01c2.9688 0 5.8164-1.1797 7.918-3.2812 2.1016-2.1016 3.2812-4.9492 3.2812-7.918v-241.14-0.95312c10.984-3.3945 20.598-10.215 27.43-19.465 6.832-9.25 10.523-20.445 10.539-31.941zm-346.64-166.43h159.6v100.8h-159.6zm-103.38 71.734h80.977v40.266c0 2.9688 1.1797 5.8164 3.2812 7.918 2.0977 2.1016 4.9492 3.2812 7.918 3.2812h182c2.9688 0 5.8203-1.1797 7.918-3.2812 2.1016-2.1016 3.2812-4.9492 3.2812-7.918v-40.266h91.227l43.734 83.496h-472.36zm342.38 123.2v9.4648c0 16.297-8.6914 31.352-22.805 39.5-14.113 8.1484-31.5 8.1484-45.613 0-14.113-8.1484-22.805-23.203-22.805-39.5v-26.77h91.223zm-113.62 9.3516c0 16.297-8.6953 31.355-22.809 39.504-14.113 8.1445-31.5 8.1445-45.613 0-14.109-8.1484-22.805-23.207-22.805-39.504v-26.656h91.227zm-113.62 0c-0.55859 15.918-9.3711 30.391-23.258 38.191-13.883 7.8008-30.828 7.8008-44.711 0-13.887-7.8008-22.699-22.273-23.258-38.191v-26.656h91.281zm-176.4-9.4609v-17.195h62.832v17.195c0 11.223-5.9883 21.594-15.707 27.207-9.7188 5.6094-21.695 5.6094-31.414 0-9.7227-5.6133-15.711-15.984-15.711-27.207zm202.78 282.29v-135.69h83.328v135.69zm105.73 0v-146.89c0-2.9688-1.1797-5.8203-3.2773-7.918-2.1016-2.1016-4.9492-3.2812-7.9219-3.2812h-105.73c-6.1875 0-11.199 5.0156-11.199 11.199v146.89h-142.52v-228.93c11.879-1.4336 22.938-6.793 31.418-15.234 6.8281 14.715 18.695 26.5 33.461 33.219 14.766 6.7148 31.449 7.9219 47.027 3.4023 15.578-4.5234 29.023-14.473 37.895-28.051 12.535 19.176 33.902 30.734 56.812 30.734s44.277-11.559 56.812-30.734c8.8789 13.559 22.316 23.492 37.883 28.008 15.57 4.5117 32.238 3.3047 46.992-3.4023 14.754-6.7109 26.621-18.477 33.453-33.176 8.4883 8.418 19.547 13.762 31.418 15.176v228.98zm180.38-282.29c0 11.223-5.9883 21.594-15.711 27.207-9.7188 5.6094-21.695 5.6094-31.414 0-9.7188-5.6133-15.707-15.984-15.707-27.207v-17.195h62.832z"/>
  <path d="m247.18 360.47h-63.168c-6.1836 0-11.199 5.0156-11.199 11.199v63.168c0 2.9688 1.1797 5.8203 3.2812 7.918 2.0977 2.1016 4.9492 3.2812 7.918 3.2812h63.168c2.9727 0 5.8203-1.1797 7.9219-3.2812 2.0977-2.0977 3.2773-4.9492 3.2773-7.918v-63.168c0-2.9688-1.1797-5.8203-3.2773-7.918-2.1016-2.1016-4.9492-3.2812-7.9219-3.2812zm-11.199 63.168h-40.77v-40.77h40.77z"/>
  <path d="m515.98 360.47h-63.168c-6.1875 0-11.199 5.0156-11.199 11.199v63.168c0 2.9688 1.1797 5.8203 3.2773 7.918 2.1016 2.1016 4.9492 3.2812 7.9219 3.2812h63.168c2.9688 0 5.8203-1.1797 7.918-3.2812 2.1016-2.0977 3.2812-4.9492 3.2812-7.918v-63.168c0-2.9688-1.1797-5.8203-3.2812-7.918-2.0977-2.1016-4.9492-3.2812-7.918-3.2812zm-11.199 63.168h-40.77v-40.77h40.77z"/>
  <path d="m300.33 77.84h99.398v22.398h-99.398z"/>
  <use x="70" y="644" xlink:href="#u"/>
  <use x="90.550781" y="644" xlink:href="#c"/>
  <use x="104.359375" y="644" xlink:href="#a"/>
  <use x="123.347656" y="644" xlink:href="#j"/>
  <use x="142.242188" y="644" xlink:href="#b"/>
  <use x="155.628906" y="644" xlink:href="#a"/>
  <use x="174.617188" y="644" xlink:href="#i"/>
  <use x="204.410156" y="644" xlink:href="#h"/>
  <use x="224.453125" y="644" xlink:href="#g"/>
  <use x="252.453125" y="644" xlink:href="#f"/>
  <use x="274.121094" y="644" xlink:href="#e"/>
  <use x="294.054688" y="644" xlink:href="#t"/>
  <use x="303.652344" y="644" xlink:href="#s"/>
  <use x="70" y="672" xlink:href="#r"/>
  <use x="82.183594" y="672" xlink:href="#c"/>
  <use x="95.992188" y="672" xlink:href="#d"/>
  <use x="115.226562" y="672" xlink:href="#q"/>
  <use x="154.152344" y="672" xlink:href="#b"/>
  <use x="167.535156" y="672" xlink:href="#p"/>
  <use x="187.46875" y="672" xlink:href="#a"/>
  <use x="216.207031" y="672" xlink:href="#o"/>
  <use x="239.640625" y="672" xlink:href="#d"/>
  <use x="258.878906" y="672" xlink:href="#n"/>
  <use x="278.8125" y="672" xlink:href="#e"/>
  <use x="308.492188" y="672" xlink:href="#m"/>
  <use x="329.015625" y="672" xlink:href="#c"/>
  <use x="342.820312" y="672" xlink:href="#d"/>
  <use x="362.058594" y="672" xlink:href="#l"/>
  <use x="371.65625" y="672" xlink:href="#a"/>
  <use x="390.648438" y="672" xlink:href="#k"/>
  <use x="407.242188" y="672" xlink:href="#b"/>
 </g>
</svg>
