<?xml version="1.0" encoding="UTF-8"?>
<svg width="100px" height="100px" version="1.1" viewBox="0 0 700 700" xmlns="http://www.w3.org/2000/svg" xmlns:xlink="http://www.w3.org/1999/xlink">
  <g>
  <path d="m478.33 84.582h-256.66c-21.652 0.027344-42.41 8.6406-57.719 23.949-15.309 15.309-23.922 36.066-23.949 57.719v163.33c0.027344 21.652 8.6406 42.41 23.949 57.719 15.309 15.309 36.066 23.922 57.719 23.949h64.531l54.848 65.809h-0.003906c2.2188 2.6562 5.4961 4.1914 8.957 4.1914 3.457 0 6.7383-1.5352 8.9531-4.1914l54.848-65.809h64.531c21.652-0.027344 42.41-8.6367 57.719-23.949 15.312-15.309 23.922-36.066 23.949-57.719v-163.33c-0.027344-21.652-8.6406-42.41-23.949-57.719-15.309-15.309-36.066-23.922-57.719-23.949zm58.332 245h0.003907c-0.015625 15.469-6.168 30.297-17.105 41.23-10.934 10.938-25.762 17.09-41.23 17.105h-70c-3.457-0.003907-6.7383 1.5352-8.9531 4.1914l-49.379 59.246-49.379-59.246c-2.2148-2.6562-5.4961-4.1953-8.9531-4.1914h-70c-15.469-0.015625-30.297-6.168-41.23-17.105-10.938-10.934-17.09-25.762-17.105-41.23v-163.33c0.015625-15.465 6.168-30.293 17.105-41.23 10.934-10.938 25.762-17.086 41.23-17.102h256.66c15.469 0.015625 30.297 6.1641 41.23 17.102 10.938 10.938 17.09 25.766 17.105 41.23z"/>
  <path d="m350 294.58c-6.1875 0-12.125 2.4609-16.5 6.8359s-6.832 10.309-6.832 16.5c0 6.1875 2.457 12.121 6.832 16.496 4.375 4.3789 10.312 6.8359 16.5 6.8359s12.125-2.457 16.5-6.8359c4.375-4.375 6.832-10.309 6.832-16.496-0.003906-6.1875-2.4648-12.117-6.8398-16.492s-10.305-6.8359-16.492-6.8438z"/>
  <path d="m350 154.58c-6.1875 0.007813-12.117 2.4688-16.492 6.8438s-6.8359 10.305-6.8398 16.492v70c0 8.3359 4.4453 16.039 11.664 20.207s16.117 4.168 23.336 0 11.664-11.871 11.664-20.207v-70c-0.003906-6.1875-2.4648-12.117-6.8398-16.492s-10.305-6.8359-16.492-6.8438z"/>
  <use x="70" y="647.5" xlink:href="#t"/>
  <use x="91.40625" y="647.5" xlink:href="#d"/>
  <use x="105.789062" y="647.5" xlink:href="#c"/>
  <use x="125.570312" y="647.5" xlink:href="#l"/>
  <use x="145.253906" y="647.5" xlink:href="#b"/>
  <use x="159.195312" y="647.5" xlink:href="#c"/>
  <use x="178.976562" y="647.5" xlink:href="#k"/>
  <use x="210.007812" y="647.5" xlink:href="#j"/>
  <use x="230.886719" y="647.5" xlink:href="#i"/>
  <use x="260.054688" y="647.5" xlink:href="#f"/>
  <use x="284.464844" y="647.5" xlink:href="#a"/>
  <use x="304.5" y="647.5" xlink:href="#e"/>
  <use x="321.789062" y="647.5" xlink:href="#h"/>
  <use x="331.789062" y="647.5" xlink:href="#e"/>
  <use x="349.078125" y="647.5" xlink:href="#a"/>
  <use x="369.113281" y="647.5" xlink:href="#g"/>
  <use x="389.878906" y="647.5" xlink:href="#h"/>
  <use x="399.875" y="647.5" xlink:href="#s"/>
  <use x="417.238281" y="647.5" xlink:href="#b"/>
  <use x="70" y="676.667969" xlink:href="#r"/>
  <use x="82.6875" y="676.667969" xlink:href="#d"/>
  <use x="97.074219" y="676.667969" xlink:href="#a"/>
  <use x="117.109375" y="676.667969" xlink:href="#q"/>
  <use x="157.65625" y="676.667969" xlink:href="#b"/>
  <use x="171.597656" y="676.667969" xlink:href="#p"/>
  <use x="192.363281" y="676.667969" xlink:href="#c"/>
  <use x="222.300781" y="676.667969" xlink:href="#f"/>
  <use x="246.710938" y="676.667969" xlink:href="#a"/>
  <use x="266.746094" y="676.667969" xlink:href="#o"/>
  <use x="287.511719" y="676.667969" xlink:href="#g"/>
  <use x="318.429688" y="676.667969" xlink:href="#n"/>
  <use x="339.804688" y="676.667969" xlink:href="#d"/>
  <use x="354.191406" y="676.667969" xlink:href="#a"/>
  <use x="374.226562" y="676.667969" xlink:href="#m"/>
  <use x="384.226562" y="676.667969" xlink:href="#c"/>
  <use x="404.007812" y="676.667969" xlink:href="#e"/>
  <use x="421.296875" y="676.667969" xlink:href="#b"/>
 </g>
</svg>
