<?xml version="1.0" encoding="UTF-8"?>
<svg width="100px" height="100px" version="1.1" viewBox="0 0 700 700" xmlns="http://www.w3.org/2000/svg" xmlns:xlink="http://www.w3.org/1999/xlink">

 <g>
  <path d="m521.82 33.027 24.18-8.5508-11.156-24.477-139.11 49.211c-12.117-16.312-33.414-25.434-55.445-21.738-29.27 4.9102-49.184 30.656-45.938 58.398l-139.29 49.273 11.168 24.477-96.23 160.38c0 58.906 50.148 106.66 112 106.66s112-47.758 112-106.67l-101.75-169.58 112.02-39.633c7.6367 10.281 18.918 17.691 31.734 20.848v322.55c-55.234 6.5742-97.996 51.43-97.996 105.82h224c0-54.387-42.762-99.242-98-105.81v-322.57c26.902-6.5898 44.738-31.129 41.652-57.496l106.47-37.664-106.12 176.87c0 58.906 50.148 106.66 112 106.66s112-47.758 112-106.66zm-339.82 366.98c-36.496 0-67.613-22.293-79.184-53.336h158.37c-11.57 31.035-42.688 53.336-79.184 53.336zm79.762-80.004h-159.52l79.754-132.91zm167.43 213.33h-158.38c11.543-31.039 42.684-53.328 79.191-53.328s67.648 22.289 79.191 53.328zm-74.336-427.07c-15.188 2.5469-29.754-7.1445-32.434-21.637-2.6836-14.492 7.5312-28.34 22.719-30.891 15.188-2.5547 29.754 7.1445 32.434 21.633 2.6836 14.488-7.5273 28.348-22.719 30.895zm163.14 187.07c-36.496 0-67.613-22.293-79.184-53.328h158.37c-11.57 31.031-42.688 53.328-79.184 53.328zm-79.754-80 79.754-132.92 79.754 132.91z"/>
  <use x="70" y="644" xlink:href="#t"/>
  <use x="90.550781" y="644" xlink:href="#b"/>
  <use x="104.359375" y="644" xlink:href="#a"/>
  <use x="123.347656" y="644" xlink:href="#d"/>
  <use x="142.242188" y="644" xlink:href="#c"/>
  <use x="155.628906" y="644" xlink:href="#a"/>
  <use x="174.617188" y="644" xlink:href="#i"/>
  <use x="204.410156" y="644" xlink:href="#g"/>
  <use x="224.453125" y="644" xlink:href="#h"/>
  <use x="252.453125" y="644" xlink:href="#g"/>
  <use x="282.242188" y="644" xlink:href="#f"/>
  <use x="294.421875" y="644" xlink:href="#d"/>
  <use x="313.320312" y="644" xlink:href="#b"/>
  <use x="327.125" y="644" xlink:href="#s"/>
  <use x="336.726562" y="644" xlink:href="#d"/>
  <use x="355.617188" y="644" xlink:href="#r"/>
  <use x="70" y="672" xlink:href="#f"/>
  <use x="82.183594" y="672" xlink:href="#b"/>
  <use x="95.992188" y="672" xlink:href="#e"/>
  <use x="115.226562" y="672" xlink:href="#q"/>
  <use x="154.152344" y="672" xlink:href="#c"/>
  <use x="167.535156" y="672" xlink:href="#p"/>
  <use x="187.46875" y="672" xlink:href="#a"/>
  <use x="216.207031" y="672" xlink:href="#o"/>
  <use x="239.640625" y="672" xlink:href="#e"/>
  <use x="258.878906" y="672" xlink:href="#n"/>
  <use x="278.8125" y="672" xlink:href="#m"/>
  <use x="308.492188" y="672" xlink:href="#l"/>
  <use x="329.015625" y="672" xlink:href="#b"/>
  <use x="342.820312" y="672" xlink:href="#e"/>
  <use x="362.058594" y="672" xlink:href="#k"/>
  <use x="371.65625" y="672" xlink:href="#a"/>
  <use x="390.648438" y="672" xlink:href="#j"/>
  <use x="407.242188" y="672" xlink:href="#c"/>
 </g>
</svg>
