<?xml version="1.0" encoding="UTF-8"?>
<svg width="100px" height="100px" version="1.1" viewBox="0 0 700 700" xmlns="http://www.w3.org/2000/svg">
 <g>
  <path d="m192.5 546h-94.5v-430.5h94.5zm-68.25-26.25h42v-378h-42z"/>
  <path d="m322 546h-94.5v-253.75h96.25v253.75zm-68.25-26.25h42v-201.25h-42z"/>
  <path d="m451.5 546h-96.25v-325.5h96.25zm-68.25-26.25h42v-273h-42z"/>
  <path d="m581 546h-96.25v-175h96.25zm-68.25-26.25h42v-124.25h-42z"/>
  <path d="m568.75 206.5-164.5-124.25-94.5 63-175-110.25 14-22.75 161 101.5 94.5-63 180.25 134.75z"/>
  <path d="m602 218.75h-89.25v-26.25h59.5l-8.75-52.5 26.25-3.5z"/>
 </g>
</svg>
